<?xml version="1.0" encoding="utf-8"?>
<!-- Generator: Adobe Illustrator 24.1.3, SVG Export Plug-In . SVG Version: 6.00 Build 0)  -->
<svg version="1.1" id="Calque_1" xmlns="http://www.w3.org/2000/svg" xmlns:xlink="http://www.w3.org/1999/xlink" x="0px" y="0px"
	 viewBox="0 0 50 50" style="enable-background:new 0 0 50 50;" xml:space="preserve">
<style type="text/css">
	.st0{fill:#F8FBFF;}
</style>
<g>
	<rect class="st0" width="50" height="50"/>
</g>
<g>
	<path d="M13.4,37l4.3-23.1L27.9,13c-0.2,0.5-0.3,1-0.4,1.5c-0.1,0.4-0.2,0.8-0.3,1.3c-0.1,0.4-0.2,0.8-0.2,1.2c-0.2,0-0.5,0-0.9,0
		c-0.4,0-0.8,0-1.3,0c-0.5,0-0.9,0-1.4,0c-0.5,0-0.9,0-1.2,0L21,22.8c0.7,0,1.3-0.1,1.9-0.1c0.5,0,1,0,1.5,0c0.5,0,0.9,0,1.1,0
		c-0.1,0.6-0.2,1.2-0.2,1.8c-0.1,0.6-0.2,1.2-0.3,1.8c-0.2,0-0.6,0-1.1,0c-0.5,0-1,0-1.5,0c-0.6,0-1.2,0-1.9,0.1l-1.1,6l4.7-0.7
		l-0.3,3.7L13.4,37z"/>
	<path d="M32.3,36c-0.7,0-1.5,0.1-2.3,0.2c-0.8,0.1-1.5,0.2-2.2,0.3c-0.7,0.1-1.4,0.3-2,0.5c0.1-1,0.3-2.1,0.5-3.2
		c0.2-1.2,0.4-2.4,0.6-3.7c0.2-1.3,0.5-2.6,0.7-3.9c0.2-1.3,0.5-2.5,0.7-3.7c0.5-2.8,1.1-5.7,1.7-8.7l5.7-0.7
		c-0.6,2.5-1.1,5-1.7,7.3c-0.2,1-0.5,2.1-0.7,3.2c-0.2,1.1-0.5,2.2-0.7,3.2c-0.2,1-0.4,2-0.6,3c-0.2,1-0.3,1.8-0.4,2.6
		c0.5,0,1.1-0.1,1.7-0.1c0.6,0,1.2,0,1.6,0c0,0.4,0.1,0.8,0.1,1.2c0,0.4,0.1,0.8,0.1,1.1c0.1,0.3,0.1,0.6,0.1,0.9
		c0,0.2,0.1,0.4,0.1,0.5c-0.2,0-0.3,0-0.5,0c-0.2,0-0.3,0-0.5,0C33.7,35.9,33,35.9,32.3,36z"/>
</g>
</svg>
