<?xml version="1.0" encoding="utf-8"?>
<!-- Generator: Adobe Illustrator 24.1.3, SVG Export Plug-In . SVG Version: 6.00 Build 0)  -->
<svg version="1.1" id="logo-poetry" xmlns="http://www.w3.org/2000/svg" xmlns:xlink="http://www.w3.org/1999/xlink" x="0px"
	 y="0px" viewBox="0 0 31.4 31.4" style="enable-background:new 0 0 31.4 31.4;" xml:space="preserve">
<style type="text/css">
	.st0{fill:#F8FBFF;}
	.st1{fill:#232527;}
</style>
<circle id="bg-poetry" class="st0" cx="15.7" cy="15.7" r="15.7"/>
<path id="P-poetry" class="st1" d="M18.3,10.6l2.2-0.3l-1,4.9c0.5,0,0.9-0.2,1.3-0.6c0.4-0.4,0.7-0.8,0.9-1.4
	c0.2-0.5,0.3-1.1,0.3-1.6c0-0.6-0.2-1.1-0.5-1.4c-0.3-0.4-0.8-0.6-1.4-0.6c-1.2,0-2.1,0.3-2.8,0.9s-1,1.5-1,2.6c0,0.4,0,0.6,0.1,0.8
	s0.1,0.2,0.1,0.2c-0.5,0-0.9-0.1-1.2-0.3c-0.3-0.2-0.4-0.6-0.4-1.1c0-0.6,0.3-1.2,0.8-1.8c0.5-0.6,1.2-1.1,2-1.4
	C18.6,9.2,19.4,9,20.2,9c0.8,0,1.4,0.1,1.9,0.4c0.5,0.3,0.9,0.6,1.1,1c0.2,0.4,0.4,0.9,0.4,1.4c0,0.6-0.2,1.2-0.5,1.8
	c-0.3,0.6-0.8,1.1-1.5,1.5c-0.6,0.4-1.4,0.6-2.2,0.6h-0.1l-0.9,4.1h-2.1L18.3,10.6z"/>
<path id="L-poetry" class="st1" d="M15.8,23.2c-0.4-0.2-1-0.6-1.6-1.1c-0.5-0.4-0.9-0.7-1.2-0.9c-0.3-0.2-0.7-0.4-1.1-0.6
	s-0.8-0.2-1.2-0.2c-0.1,0-0.3,0-0.3,0l2.2-10.1c-0.7,0.3-1.2,0.7-1.5,1.2c-0.4,0.5-0.5,1.2-0.5,2c0,0.4,0,0.6,0.1,0.8
	c0.1,0.1,0.1,0.2,0.1,0.2c-0.5,0-0.9-0.1-1.2-0.3S9,13.4,9,12.9c0-0.6,0.3-1.2,0.8-1.8c0.5-0.6,1.2-1.1,2-1.4s1.6-0.5,2.4-0.5
	c0.1,0,0.3,0,0.6,0l-2.2,10.5c0.3,0.1,0.6,0.2,0.8,0.3c0.3,0.1,0.6,0.3,1,0.5c0.6,0.3,1.2,0.6,1.6,0.8c0.4,0.2,0.9,0.3,1.4,0.3
	c0.4,0,0.8-0.1,1.2-0.2c-0.1,0.7-0.3,1.3-0.5,1.7c-0.3,0.4-0.6,0.6-1,0.6C16.6,23.5,16.2,23.4,15.8,23.2z"/>
</svg>
